<?xml version="1.0" encoding="UTF-8"?>
<!--
  Streamix Icon Sprite
  Bootstrap Icons (https://github.com/twbs/icons) - MIT License
  Copyright (c) 2019-2024 The Bootstrap Authors
-->
<svg xmlns="http://www.w3.org/2000/svg" style="display:none" aria-hidden="true">
  <symbol id="icon-bar-chart" viewBox="0 0 16 16">
    <path d="M4 11H2v3h2zm5-4H7v7h2zm5-5v12h-2V2zm-2-1a1 1 0 0 0-1 1v12a1 1 0 0 0 1 1h2a1 1 0 0 0 1-1V2a1 1 0 0 0-1-1zM6 7a1 1 0 0 1 1-1h2a1 1 0 0 1 1 1v7a1 1 0 0 1-1 1H7a1 1 0 0 1-1-1zm-5 4a1 1 0 0 1 1-1h2a1 1 0 0 1 1 1v3a1 1 0 0 1-1 1H2a1 1 0 0 1-1-1z"/>
  </symbol>
  <symbol id="icon-box" viewBox="0 0 16 16">
    <path d="M8.186 1.113a.5.5 0 0 0-.372 0L1.846 3.5 8 5.961 14.154 3.5zM15 4.239l-6.5 2.6v7.922l6.5-2.6V4.24zM7.5 14.762V6.838L1 4.239v7.923zM7.443.184a1.5 1.5 0 0 1 1.114 0l7.129 2.852A.5.5 0 0 1 16 3.5v8.662a1 1 0 0 1-.629.928l-7.185 2.874a.5.5 0 0 1-.372 0L.63 13.09a1 1 0 0 1-.63-.928V3.5a.5.5 0 0 1 .314-.464z"/>
  </symbol>
  <symbol id="icon-broadcast-pin" viewBox="0 0 16 16">
    <path d="M3.05 3.05a7 7 0 0 0 0 9.9.5.5 0 0 1-.707.707 8 8 0 0 1 0-11.314.5.5 0 0 1 .707.707m2.122 2.122a4 4 0 0 0 0 5.656.5.5 0 1 1-.708.708 5 5 0 0 1 0-7.072.5.5 0 0 1 .708.708m5.656-.708a.5.5 0 0 1 .708 0 5 5 0 0 1 0 7.072.5.5 0 1 1-.708-.708 4 4 0 0 0 0-5.656.5.5 0 0 1 0-.708m2.122-2.12a.5.5 0 0 1 .707 0 8 8 0 0 1 0 11.313.5.5 0 0 1-.707-.707 7 7 0 0 0 0-9.9.5.5 0 0 1 0-.707zM6 8a2 2 0 1 1 2.5 1.937V15.5a.5.5 0 0 1-1 0V9.937A2 2 0 0 1 6 8"/>
  </symbol>
  <symbol id="icon-broadcast" viewBox="0 0 16 16">
    <path d="M3.05 3.05a7 7 0 0 0 0 9.9.5.5 0 0 1-.707.707 8 8 0 0 1 0-11.314.5.5 0 0 1 .707.707m2.122 2.122a4 4 0 0 0 0 5.656.5.5 0 1 1-.708.708 5 5 0 0 1 0-7.072.5.5 0 0 1 .708.708m5.656-.708a.5.5 0 0 1 .708 0 5 5 0 0 1 0 7.072.5.5 0 1 1-.708-.708 4 4 0 0 0 0-5.656.5.5 0 0 1 0-.708m2.122-2.12a.5.5 0 0 1 .707 0 8 8 0 0 1 0 11.313.5.5 0 0 1-.707-.707 7 7 0 0 0 0-9.9.5.5 0 0 1 0-.707zM10 8a2 2 0 1 1-4 0 2 2 0 0 1 4 0"/>
  </symbol>
  <symbol id="icon-calendar-check" viewBox="0 0 16 16">
    <path d="M10.854 7.146a.5.5 0 0 1 0 .708l-3 3a.5.5 0 0 1-.708 0l-1.5-1.5a.5.5 0 1 1 .708-.708L7.5 9.793l2.646-2.647a.5.5 0 0 1 .708 0"/>
    <path d="M3.5 0a.5.5 0 0 1 .5.5V1h8V.5a.5.5 0 0 1 1 0V1h1a2 2 0 0 1 2 2v11a2 2 0 0 1-2 2H2a2 2 0 0 1-2-2V3a2 2 0 0 1 2-2h1V.5a.5.5 0 0 1 .5-.5M1 4v10a1 1 0 0 0 1 1h12a1 1 0 0 0 1-1V4z"/>
  </symbol>
  <symbol id="icon-calendar-month" viewBox="0 0 16 16">
    <path d="M2.56 11.332 3.1 9.73h1.984l.54 1.602h.718L4.444 6h-.696L1.85 11.332zm1.544-4.527L4.9 9.18H3.284l.8-2.375zm5.746.422h-.676V9.77c0 .652-.414 1.023-1.004 1.023-.539 0-.98-.246-.98-1.012V7.227h-.676v2.746c0 .941.606 1.425 1.453 1.425.656 0 1.043-.28 1.188-.605h.027v.539h.668zm2.258 5.046c-.563 0-.91-.304-.985-.636h-.687c.094.683.625 1.199 1.668 1.199.93 0 1.746-.527 1.746-1.578V7.227h-.649v.578h-.019c-.191-.348-.637-.64-1.195-.64-.965 0-1.64.679-1.64 1.886v.34c0 1.23.683 1.902 1.64 1.902.558 0 1.008-.293 1.172-.648h.02v.605c0 .645-.423 1.023-1.071 1.023m.008-4.53c.648 0 1.062.527 1.062 1.359v.253c0 .848-.39 1.364-1.062 1.364-.692 0-1.098-.512-1.098-1.364v-.253c0-.868.406-1.36 1.098-1.36z"/>
    <path d="M3.5 0a.5.5 0 0 1 .5.5V1h8V.5a.5.5 0 0 1 1 0V1h1a2 2 0 0 1 2 2v11a2 2 0 0 1-2 2H2a2 2 0 0 1-2-2V3a2 2 0 0 1 2-2h1V.5a.5.5 0 0 1 .5-.5M1 4v10a1 1 0 0 0 1 1h12a1 1 0 0 0 1-1V4z"/>
  </symbol>
  <symbol id="icon-camera-video" viewBox="0 0 16 16">
    <path fill-rule="evenodd" d="M0 5a2 2 0 0 1 2-2h7.5a2 2 0 0 1 1.983 1.738l3.11-1.382A1 1 0 0 1 16 4.269v7.462a1 1 0 0 1-1.406.913l-3.111-1.382A2 2 0 0 1 9.5 13H2a2 2 0 0 1-2-2zm11.5 5.175 3.5 1.556V4.269l-3.5 1.556zM2 4a1 1 0 0 0-1 1v6a1 1 0 0 0 1 1h7.5a1 1 0 0 0 1-1V5a1 1 0 0 0-1-1z"/>
  </symbol>
  <symbol id="icon-check-circle-fill" viewBox="0 0 16 16">
    <path d="M16 8A8 8 0 1 1 0 8a8 8 0 0 1 16 0m-3.97-3.03a.75.75 0 0 0-1.08.022L7.477 9.417 5.384 7.323a.75.75 0 0 0-1.06 1.06L6.97 11.03a.75.75 0 0 0 1.079-.02l3.992-4.99a.75.75 0 0 0-.01-1.05z"/>
  </symbol>
  <symbol id="icon-check-circle" viewBox="0 0 16 16">
    <path d="M8 15A7 7 0 1 1 8 1a7 7 0 0 1 0 14m0 1A8 8 0 1 0 8 0a8 8 0 0 0 0 16"/>
    <path d="m10.97 4.97-.02.022-3.473 4.425-2.093-2.094a.75.75 0 0 0-1.06 1.06L6.97 11.03a.75.75 0 0 0 1.079-.02l3.992-4.99a.75.75 0 0 0-1.071-1.05"/>
  </symbol>
  <symbol id="icon-check" viewBox="0 0 16 16">
    <path d="M10.97 4.97a.75.75 0 0 1 1.07 1.05l-3.99 4.99a.75.75 0 0 1-1.08.02L4.324 8.384a.75.75 0 1 1 1.06-1.06l2.094 2.093 3.473-4.425z"/>
  </symbol>
  <symbol id="icon-chevron-down" viewBox="0 0 16 16">
    <path fill-rule="evenodd" d="M1.646 4.646a.5.5 0 0 1 .708 0L8 10.293l5.646-5.647a.5.5 0 0 1 .708.708l-6 6a.5.5 0 0 1-.708 0l-6-6a.5.5 0 0 1 0-.708"/>
  </symbol>
  <symbol id="icon-chevron-left" viewBox="0 0 16 16">
    <path fill-rule="evenodd" d="M11.354 1.646a.5.5 0 0 1 0 .708L5.707 8l5.647 5.646a.5.5 0 0 1-.708.708l-6-6a.5.5 0 0 1 0-.708l6-6a.5.5 0 0 1 .708 0"/>
  </symbol>
  <symbol id="icon-chevron-right" viewBox="0 0 16 16">
    <path fill-rule="evenodd" d="M4.646 1.646a.5.5 0 0 1 .708 0l6 6a.5.5 0 0 1 0 .708l-6 6a.5.5 0 0 1-.708-.708L10.293 8 4.646 2.354a.5.5 0 0 1 0-.708"/>
  </symbol>
  <symbol id="icon-clipboard" viewBox="0 0 16 16">
    <path d="M4 1.5H3a2 2 0 0 0-2 2V14a2 2 0 0 0 2 2h10a2 2 0 0 0 2-2V3.5a2 2 0 0 0-2-2h-1v1h1a1 1 0 0 1 1 1V14a1 1 0 0 1-1 1H3a1 1 0 0 1-1-1V3.5a1 1 0 0 1 1-1h1z"/>
    <path d="M9.5 1a.5.5 0 0 1 .5.5v1a.5.5 0 0 1-.5.5h-3a.5.5 0 0 1-.5-.5v-1a.5.5 0 0 1 .5-.5zm-3-1A1.5 1.5 0 0 0 5 1.5v1A1.5 1.5 0 0 0 6.5 4h3A1.5 1.5 0 0 0 11 2.5v-1A1.5 1.5 0 0 0 9.5 0z"/>
  </symbol>
  <symbol id="icon-clock-history" viewBox="0 0 16 16">
    <path d="M8.515 1.019A7 7 0 0 0 8 1V0a8 8 0 0 1 .589.022zm2.004.45a7 7 0 0 0-.985-.299l.219-.976q.576.129 1.126.342zm1.37.71a7 7 0 0 0-.439-.27l.493-.87a8 8 0 0 1 .979.654l-.615.789a7 7 0 0 0-.418-.302zm1.834 1.79a7 7 0 0 0-.653-.796l.724-.69q.406.429.747.91zm.744 1.352a7 7 0 0 0-.214-.468l.893-.45a8 8 0 0 1 .45 1.088l-.95.313a7 7 0 0 0-.179-.483m.53 2.507a7 7 0 0 0-.1-1.025l.985-.17q.1.58.116 1.17zm-.131 1.538q.05-.254.081-.51l.993.123a8 8 0 0 1-.23 1.155l-.964-.267q.069-.247.12-.501m-.952 2.379q.276-.436.486-.908l.914.405q-.24.54-.555 1.038zm-.964 1.205q.183-.183.35-.378l.758.653a8 8 0 0 1-.401.432z"/>
    <path d="M8 1a7 7 0 1 0 4.95 11.95l.707.707A8.001 8.001 0 1 1 8 0z"/>
    <path d="M7.5 3a.5.5 0 0 1 .5.5v5.21l3.248 1.856a.5.5 0 0 1-.496.868l-3.5-2A.5.5 0 0 1 7 9V3.5a.5.5 0 0 1 .5-.5"/>
  </symbol>
  <symbol id="icon-cloud-arrow-up" viewBox="0 0 16 16">
    <path fill-rule="evenodd" d="M7.646 5.146a.5.5 0 0 1 .708 0l2 2a.5.5 0 0 1-.708.708L8.5 6.707V10.5a.5.5 0 0 1-1 0V6.707L6.354 7.854a.5.5 0 1 1-.708-.708z"/>
    <path d="M4.406 3.342A5.53 5.53 0 0 1 8 2c2.69 0 4.923 2 5.166 4.579C14.758 6.804 16 8.137 16 9.773 16 11.569 14.502 13 12.687 13H3.781C1.708 13 0 11.366 0 9.318c0-1.763 1.266-3.223 2.942-3.593.143-.863.698-1.723 1.464-2.383m.653.757c-.757.653-1.153 1.44-1.153 2.056v.448l-.445.049C2.064 6.805 1 7.952 1 9.318 1 10.785 2.23 12 3.781 12h8.906C13.98 12 15 10.988 15 9.773c0-1.216-1.02-2.228-2.313-2.228h-.5v-.5C12.188 4.825 10.328 3 8 3a4.53 4.53 0 0 0-2.941 1.1z"/>
  </symbol>
  <symbol id="icon-cloud-upload" viewBox="0 0 16 16">
    <path fill-rule="evenodd" d="M4.406 1.342A5.53 5.53 0 0 1 8 0c2.69 0 4.923 2 5.166 4.579C14.758 4.804 16 6.137 16 7.773 16 9.569 14.502 11 12.687 11H10a.5.5 0 0 1 0-1h2.688C13.979 10 15 8.988 15 7.773c0-1.216-1.02-2.228-2.313-2.228h-.5v-.5C12.188 2.825 10.328 1 8 1a4.53 4.53 0 0 0-2.941 1.1c-.757.652-1.153 1.438-1.153 2.055v.448l-.445.049C2.064 4.805 1 5.952 1 7.318 1 8.785 2.23 10 3.781 10H6a.5.5 0 0 1 0 1H3.781C1.708 11 0 9.366 0 7.318c0-1.763 1.266-3.223 2.942-3.593.143-.863.698-1.723 1.464-2.383"/>
    <path fill-rule="evenodd" d="M7.646 4.146a.5.5 0 0 1 .708 0l3 3a.5.5 0 0 1-.708.708L8.5 5.707V14.5a.5.5 0 0 1-1 0V5.707L5.354 7.854a.5.5 0 1 1-.708-.708z"/>
  </symbol>
  <symbol id="icon-download" viewBox="0 0 16 16">
    <path d="M.5 9.9a.5.5 0 0 1 .5.5v2.5a1 1 0 0 0 1 1h12a1 1 0 0 0 1-1v-2.5a.5.5 0 0 1 1 0v2.5a2 2 0 0 1-2 2H2a2 2 0 0 1-2-2v-2.5a.5.5 0 0 1 .5-.5"/>
    <path d="M7.646 11.854a.5.5 0 0 0 .708 0l3-3a.5.5 0 0 0-.708-.708L8.5 10.293V1.5a.5.5 0 0 0-1 0v8.793L5.354 8.146a.5.5 0 1 0-.708.708z"/>
  </symbol>
  <symbol id="icon-exclamation-triangle-fill" viewBox="0 0 16 16">
    <path d="M8.982 1.566a1.13 1.13 0 0 0-1.96 0L.165 13.233c-.457.778.091 1.767.98 1.767h13.713c.889 0 1.438-.99.98-1.767zM8 5c.535 0 .954.462.9.995l-.35 3.507a.552.552 0 0 1-1.1 0L7.1 5.995A.905.905 0 0 1 8 5m.002 6a1 1 0 1 1 0 2 1 1 0 0 1 0-2"/>
  </symbol>
  <symbol id="icon-exclamation-triangle" viewBox="0 0 16 16">
    <path d="M7.938 2.016A.13.13 0 0 1 8.002 2a.13.13 0 0 1 .063.016.15.15 0 0 1 .054.057l6.857 11.667c.036.06.035.124.002.183a.2.2 0 0 1-.054.06.1.1 0 0 1-.066.017H1.146a.1.1 0 0 1-.066-.017.2.2 0 0 1-.054-.06.18.18 0 0 1 .002-.183L7.884 2.073a.15.15 0 0 1 .054-.057m1.044-.45a1.13 1.13 0 0 0-1.96 0L.165 13.233c-.457.778.091 1.767.98 1.767h13.713c.889 0 1.438-.99.98-1.767z"/>
    <path d="M7.002 12a1 1 0 1 1 2 0 1 1 0 0 1-2 0M7.1 5.995a.905.905 0 1 1 1.8 0l-.35 3.507a.552.552 0 0 1-1.1 0z"/>
  </symbol>
  <symbol id="icon-eye" viewBox="0 0 16 16">
    <path d="M16 8s-3-5.5-8-5.5S0 8 0 8s3 5.5 8 5.5S16 8 16 8M1.173 8a13 13 0 0 1 1.66-2.043C4.12 4.668 5.88 3.5 8 3.5s3.879 1.168 5.168 2.457A13 13 0 0 1 14.828 8q-.086.13-.195.288c-.335.48-.83 1.12-1.465 1.755C11.879 11.332 10.119 12.5 8 12.5s-3.879-1.168-5.168-2.457A13 13 0 0 1 1.172 8z"/>
    <path d="M8 5.5a2.5 2.5 0 1 0 0 5 2.5 2.5 0 0 0 0-5M4.5 8a3.5 3.5 0 1 1 7 0 3.5 3.5 0 0 1-7 0"/>
  </symbol>
  <symbol id="icon-file-earmark-music" viewBox="0 0 16 16">
    <path d="M11 6.64a1 1 0 0 0-1.243-.97l-1 .25A1 1 0 0 0 8 6.89v4.306A2.6 2.6 0 0 0 7 11c-.5 0-.974.134-1.338.377-.36.24-.662.628-.662 1.123s.301.883.662 1.123c.364.243.839.377 1.338.377s.974-.134 1.338-.377c.36-.24.662-.628.662-1.123V8.89l2-.5z"/>
    <path d="M14 14V4.5L9.5 0H4a2 2 0 0 0-2 2v12a2 2 0 0 0 2 2h8a2 2 0 0 0 2-2M9.5 3A1.5 1.5 0 0 0 11 4.5h2V14a1 1 0 0 1-1 1H4a1 1 0 0 1-1-1V2a1 1 0 0 1 1-1h5.5z"/>
  </symbol>
  <symbol id="icon-file-earmark-text" viewBox="0 0 16 16">
    <path d="M5.5 7a.5.5 0 0 0 0 1h5a.5.5 0 0 0 0-1zM5 9.5a.5.5 0 0 1 .5-.5h5a.5.5 0 0 1 0 1h-5a.5.5 0 0 1-.5-.5m0 2a.5.5 0 0 1 .5-.5h2a.5.5 0 0 1 0 1h-2a.5.5 0 0 1-.5-.5"/>
    <path d="M9.5 0H4a2 2 0 0 0-2 2v12a2 2 0 0 0 2 2h8a2 2 0 0 0 2-2V4.5zm0 1v2A1.5 1.5 0 0 0 11 4.5h2V14a1 1 0 0 1-1 1H4a1 1 0 0 1-1-1V2a1 1 0 0 1 1-1z"/>
  </symbol>
  <symbol id="icon-file-earmark-zip" viewBox="0 0 16 16">
    <path d="M5 7.5a1 1 0 0 1 1-1h1a1 1 0 0 1 1 1v.938l.4 1.599a1 1 0 0 1-.416 1.074l-.93.62a1 1 0 0 1-1.11 0l-.929-.62a1 1 0 0 1-.415-1.074L5 8.438zm2 0H6v.938a1 1 0 0 1-.03.243l-.4 1.598.93.62.929-.62-.4-1.598A1 1 0 0 1 7 8.438z"/>
    <path d="M14 4.5V14a2 2 0 0 1-2 2H4a2 2 0 0 1-2-2V2a2 2 0 0 1 2-2h5.5zm-3 0A1.5 1.5 0 0 1 9.5 3V1h-2v1h-1v1h1v1h-1v1h1v1H6V5H5V4h1V3H5V2h1V1H4a1 1 0 0 0-1 1v12a1 1 0 0 0 1 1h8a1 1 0 0 0 1-1V4.5z"/>
  </symbol>
  <symbol id="icon-file-earmark" viewBox="0 0 16 16">
    <path d="M14 4.5V14a2 2 0 0 1-2 2H4a2 2 0 0 1-2-2V2a2 2 0 0 1 2-2h5.5zm-3 0A1.5 1.5 0 0 1 9.5 3V1H4a1 1 0 0 0-1 1v12a1 1 0 0 0 1 1h8a1 1 0 0 0 1-1V4.5z"/>
  </symbol>
  <symbol id="icon-fire" viewBox="0 0 16 16">
    <path d="M8 16c3.314 0 6-2 6-5.5 0-1.5-.5-4-2.5-6 .25 1.5-1.25 2-1.25 2C11 4 9 .5 6 0c.357 2 .5 4-2 6-1.25 1-2 2.729-2 4.5C2 14 4.686 16 8 16m0-1c-1.657 0-3-1-3-2.75 0-.75.25-2 1.25-3C6.125 10 7 10.5 7 10.5c-.375-1.25.5-3.25 2-3.5-.179 1-.25 2 1 3 .625.5 1 1.364 1 2.25C11 14 9.657 15 8 15"/>
  </symbol>
  <symbol id="icon-folder-x" viewBox="0 0 16 16">
    <path d="M.54 3.87.5 3a2 2 0 0 1 2-2h3.672a2 2 0 0 1 1.414.586l.828.828A2 2 0 0 0 9.828 3h3.982a2 2 0 0 1 1.992 2.181L15.546 8H14.54l.265-2.91A1 1 0 0 0 13.81 4H2.19a1 1 0 0 0-.996 1.09l.637 7a1 1 0 0 0 .995.91H9v1H2.826a2 2 0 0 1-1.991-1.819l-.637-7a2 2 0 0 1 .342-1.31zm6.339-1.577A1 1 0 0 0 6.172 2H2.5a1 1 0 0 0-1 .981l.006.139q.323-.119.684-.12h5.396z"/>
    <path d="M11.854 10.146a.5.5 0 0 0-.707.708L12.293 12l-1.146 1.146a.5.5 0 0 0 .707.708L13 12.707l1.146 1.147a.5.5 0 0 0 .708-.708L13.707 12l1.147-1.146a.5.5 0 0 0-.707-.708L13 11.293z"/>
  </symbol>
  <symbol id="icon-folder" viewBox="0 0 16 16">
    <path d="M.54 3.87.5 3a2 2 0 0 1 2-2h3.672a2 2 0 0 1 1.414.586l.828.828A2 2 0 0 0 9.828 3h3.982a2 2 0 0 1 1.992 2.181l-.637 7A2 2 0 0 1 13.174 14H2.826a2 2 0 0 1-1.991-1.819l-.637-7a2 2 0 0 1 .342-1.31zM2.19 4a1 1 0 0 0-.996 1.09l.637 7a1 1 0 0 0 .995.91h10.348a1 1 0 0 0 .995-.91l.637-7A1 1 0 0 0 13.81 4zm4.69-1.707A1 1 0 0 0 6.172 2H2.5a1 1 0 0 0-1 .981l.006.139q.323-.119.684-.12h5.396z"/>
  </symbol>
  <symbol id="icon-graph-up" viewBox="0 0 16 16">
    <path fill-rule="evenodd" d="M0 0h1v15h15v1H0zm14.817 3.113a.5.5 0 0 1 .07.704l-4.5 5.5a.5.5 0 0 1-.74.037L7.06 6.767l-3.656 5.027a.5.5 0 0 1-.808-.588l4-5.5a.5.5 0 0 1 .758-.06l2.609 2.61 4.15-5.073a.5.5 0 0 1 .704-.07"/>
  </symbol>
  <symbol id="icon-image" viewBox="0 0 16 16">
    <path d="M6.002 5.5a1.5 1.5 0 1 1-3 0 1.5 1.5 0 0 1 3 0"/>
    <path d="M2.002 1a2 2 0 0 0-2 2v10a2 2 0 0 0 2 2h12a2 2 0 0 0 2-2V3a2 2 0 0 0-2-2zm12 1a1 1 0 0 1 1 1v6.5l-3.777-1.947a.5.5 0 0 0-.577.093l-3.71 3.71-2.66-1.772a.5.5 0 0 0-.63.062L1.002 12V3a1 1 0 0 1 1-1z"/>
  </symbol>
  <symbol id="icon-inbox" viewBox="0 0 16 16">
    <path d="M4.98 4a.5.5 0 0 0-.39.188L1.54 8H6a.5.5 0 0 1 .5.5 1.5 1.5 0 1 0 3 0A.5.5 0 0 1 10 8h4.46l-3.05-3.812A.5.5 0 0 0 11.02 4zm9.954 5H10.45a2.5 2.5 0 0 1-4.9 0H1.066l.32 2.562a.5.5 0 0 0 .497.438h12.234a.5.5 0 0 0 .496-.438zM3.809 3.563A1.5 1.5 0 0 1 4.981 3h6.038a1.5 1.5 0 0 1 1.172.563l3.7 4.625a.5.5 0 0 1 .105.374l-.39 3.124A1.5 1.5 0 0 1 14.117 13H1.883a1.5 1.5 0 0 1-1.489-1.314l-.39-3.124a.5.5 0 0 1 .106-.374z"/>
  </symbol>
  <symbol id="icon-info-circle" viewBox="0 0 16 16">
    <path d="M8 15A7 7 0 1 1 8 1a7 7 0 0 1 0 14m0 1A8 8 0 1 0 8 0a8 8 0 0 0 0 16"/>
    <path d="m8.93 6.588-2.29.287-.082.38.45.083c.294.07.352.176.288.469l-.738 3.468c-.194.897.105 1.319.808 1.319.545 0 1.178-.252 1.465-.598l.088-.416c-.2.176-.492.246-.686.246-.275 0-.375-.193-.304-.533zM9 4.5a1 1 0 1 1-2 0 1 1 0 0 1 2 0"/>
  </symbol>
  <symbol id="icon-link-45deg" viewBox="0 0 16 16">
    <path d="M4.715 6.542 3.343 7.914a3 3 0 1 0 4.243 4.243l1.828-1.829A3 3 0 0 0 8.586 5.5L8 6.086a1 1 0 0 0-.154.199 2 2 0 0 1 .861 3.337L6.88 11.45a2 2 0 1 1-2.83-2.83l.793-.792a4 4 0 0 1-.128-1.287z"/>
    <path d="M6.586 4.672A3 3 0 0 0 7.414 9.5l.775-.776a2 2 0 0 1-.896-3.346L9.12 3.55a2 2 0 1 1 2.83 2.83l-.793.792c.112.42.155.855.128 1.287l1.372-1.372a3 3 0 1 0-4.243-4.243z"/>
  </symbol>
  <symbol id="icon-list" viewBox="0 0 16 16">
    <path fill-rule="evenodd" d="M2.5 12a.5.5 0 0 1 .5-.5h10a.5.5 0 0 1 0 1H3a.5.5 0 0 1-.5-.5m0-4a.5.5 0 0 1 .5-.5h10a.5.5 0 0 1 0 1H3a.5.5 0 0 1-.5-.5m0-4a.5.5 0 0 1 .5-.5h10a.5.5 0 0 1 0 1H3a.5.5 0 0 1-.5-.5"/>
  </symbol>
  <symbol id="icon-moon" viewBox="0 0 16 16">
    <path d="M6 .278a.77.77 0 0 1 .08.858 7.2 7.2 0 0 0-.878 3.46c0 4.021 3.278 7.277 7.318 7.277q.792-.001 1.533-.16a.79.79 0 0 1 .81.316.73.73 0 0 1-.031.893A8.35 8.35 0 0 1 8.344 16C3.734 16 0 12.286 0 7.71 0 4.266 2.114 1.312 5.124.06A.75.75 0 0 1 6 .278M4.858 1.311A7.27 7.27 0 0 0 1.025 7.71c0 4.02 3.279 7.276 7.319 7.276a7.32 7.32 0 0 0 5.205-2.162q-.506.063-1.029.063c-4.61 0-8.343-3.714-8.343-8.29 0-1.167.242-2.278.681-3.286"/>
  </symbol>
  <symbol id="icon-music-note-beamed" viewBox="0 0 16 16">
    <path d="M6 13c0 1.105-1.12 2-2.5 2S1 14.105 1 13s1.12-2 2.5-2 2.5.896 2.5 2m9-2c0 1.105-1.12 2-2.5 2s-2.5-.895-2.5-2 1.12-2 2.5-2 2.5.895 2.5 2"/>
    <path fill-rule="evenodd" d="M14 11V2h1v9zM6 3v10H5V3z"/>
    <path d="M5 2.905a1 1 0 0 1 .9-.995l8-.8a1 1 0 0 1 1.1.995V3L5 4z"/>
  </symbol>
  <symbol id="icon-play-circle-fill" viewBox="0 0 16 16">
    <path d="M16 8A8 8 0 1 1 0 8a8 8 0 0 1 16 0M6.79 5.093A.5.5 0 0 0 6 5.5v5a.5.5 0 0 0 .79.407l3.5-2.5a.5.5 0 0 0 0-.814z"/>
  </symbol>
  <symbol id="icon-play-circle" viewBox="0 0 16 16">
    <path d="M8 15A7 7 0 1 1 8 1a7 7 0 0 1 0 14m0 1A8 8 0 1 0 8 0a8 8 0 0 0 0 16"/>
    <path d="M6.271 5.055a.5.5 0 0 1 .52.038l3.5 2.5a.5.5 0 0 1 0 .814l-3.5 2.5A.5.5 0 0 1 6 10.5v-5a.5.5 0 0 1 .271-.445"/>
  </symbol>
  <symbol id="icon-play-fill" viewBox="0 0 16 16">
    <path d="m11.596 8.697-6.363 3.692c-.54.313-1.233-.066-1.233-.697V4.308c0-.63.692-1.01 1.233-.696l6.363 3.692a.802.802 0 0 1 0 1.393"/>
  </symbol>
  <symbol id="icon-speedometer2" viewBox="0 0 16 16">
    <path d="M8 4a.5.5 0 0 1 .5.5V6a.5.5 0 0 1-1 0V4.5A.5.5 0 0 1 8 4M3.732 5.732a.5.5 0 0 1 .707 0l.915.914a.5.5 0 1 1-.708.708l-.914-.915a.5.5 0 0 1 0-.707M2 10a.5.5 0 0 1 .5-.5h1.586a.5.5 0 0 1 0 1H2.5A.5.5 0 0 1 2 10m9.5 0a.5.5 0 0 1 .5-.5h1.5a.5.5 0 0 1 0 1H12a.5.5 0 0 1-.5-.5m.754-4.246a.39.39 0 0 0-.527-.02L7.547 9.31a.91.91 0 1 0 1.302 1.258l3.434-4.297a.39.39 0 0 0-.029-.518z"/>
    <path fill-rule="evenodd" d="M0 10a8 8 0 1 1 15.547 2.661c-.442 1.253-1.845 1.602-2.932 1.25C11.309 13.488 9.475 13 8 13c-1.474 0-3.31.488-4.615.911-1.087.352-2.49.003-2.932-1.25A8 8 0 0 1 0 10m8-7a7 7 0 0 0-6.603 9.329c.203.575.923.876 1.68.63C4.397 12.533 6.358 12 8 12s3.604.532 4.923.96c.757.245 1.477-.056 1.68-.631A7 7 0 0 0 8 3"/>
  </symbol>
  <symbol id="icon-sun" viewBox="0 0 16 16">
    <path d="M8 11a3 3 0 1 1 0-6 3 3 0 0 1 0 6m0 1a4 4 0 1 0 0-8 4 4 0 0 0 0 8M8 0a.5.5 0 0 1 .5.5v2a.5.5 0 0 1-1 0v-2A.5.5 0 0 1 8 0m0 13a.5.5 0 0 1 .5.5v2a.5.5 0 0 1-1 0v-2A.5.5 0 0 1 8 13m8-5a.5.5 0 0 1-.5.5h-2a.5.5 0 0 1 0-1h2a.5.5 0 0 1 .5.5M3 8a.5.5 0 0 1-.5.5h-2a.5.5 0 0 1 0-1h2A.5.5 0 0 1 3 8m10.657-5.657a.5.5 0 0 1 0 .707l-1.414 1.415a.5.5 0 1 1-.707-.708l1.414-1.414a.5.5 0 0 1 .707 0m-9.193 9.193a.5.5 0 0 1 0 .707L3.05 13.657a.5.5 0 0 1-.707-.707l1.414-1.414a.5.5 0 0 1 .707 0m9.193 2.121a.5.5 0 0 1-.707 0l-1.414-1.414a.5.5 0 0 1 .707-.707l1.414 1.414a.5.5 0 0 1 0 .707M4.464 4.465a.5.5 0 0 1-.707 0L2.343 3.05a.5.5 0 1 1 .707-.707l1.414 1.414a.5.5 0 0 1 0 .708"/>
  </symbol>
  <symbol id="icon-trash" viewBox="0 0 16 16">
    <path d="M5.5 5.5A.5.5 0 0 1 6 6v6a.5.5 0 0 1-1 0V6a.5.5 0 0 1 .5-.5m2.5 0a.5.5 0 0 1 .5.5v6a.5.5 0 0 1-1 0V6a.5.5 0 0 1 .5-.5m3 .5a.5.5 0 0 0-1 0v6a.5.5 0 0 0 1 0z"/>
    <path d="M14.5 3a1 1 0 0 1-1 1H13v9a2 2 0 0 1-2 2H5a2 2 0 0 1-2-2V4h-.5a1 1 0 0 1-1-1V2a1 1 0 0 1 1-1H6a1 1 0 0 1 1-1h2a1 1 0 0 1 1 1h3.5a1 1 0 0 1 1 1zM4.118 4 4 4.059V13a1 1 0 0 0 1 1h6a1 1 0 0 0 1-1V4.059L11.882 4zM2.5 3h11V2h-11z"/>
  </symbol>
  <symbol id="icon-wifi-off" viewBox="0 0 16 16">
    <path d="M10.706 3.294A12.6 12.6 0 0 0 8 3C5.259 3 2.723 3.882.663 5.379a.485.485 0 0 0-.048.736.52.52 0 0 0 .668.05A11.45 11.45 0 0 1 8 4q.946 0 1.852.148zM8 6c-1.905 0-3.68.56-5.166 1.526a.48.48 0 0 0-.063.745.525.525 0 0 0 .652.065 8.45 8.45 0 0 1 3.51-1.27zm2.596 1.404.785-.785q.947.362 1.785.907a.482.482 0 0 1 .063.745.525.525 0 0 1-.652.065 8.5 8.5 0 0 0-1.98-.932zM8 10l.933-.933a6.5 6.5 0 0 1 2.013.637c.285.145.326.524.1.75l-.015.015a.53.53 0 0 1-.611.09A5.5 5.5 0 0 0 8 10m4.905-4.905.747-.747q.886.451 1.685 1.03a.485.485 0 0 1 .047.737.52.52 0 0 1-.668.05 11.5 11.5 0 0 0-1.811-1.07M9.02 11.78c.238.14.236.464.04.66l-.707.706a.5.5 0 0 1-.707 0l-.707-.707c-.195-.195-.197-.518.04-.66A2 2 0 0 1 8 11.5c.374 0 .723.102 1.021.28zm4.355-9.905a.53.53 0 0 1 .75.75l-10.75 10.75a.53.53 0 0 1-.75-.75z"/>
  </symbol>
  <symbol id="icon-x-circle" viewBox="0 0 16 16">
    <path d="M8 15A7 7 0 1 1 8 1a7 7 0 0 1 0 14m0 1A8 8 0 1 0 8 0a8 8 0 0 0 0 16"/>
    <path d="M4.646 4.646a.5.5 0 0 1 .708 0L8 7.293l2.646-2.647a.5.5 0 0 1 .708.708L8.707 8l2.647 2.646a.5.5 0 0 1-.708.708L8 8.707l-2.646 2.647a.5.5 0 0 1-.708-.708L7.293 8 4.646 5.354a.5.5 0 0 1 0-.708"/>
  </symbol>
  <symbol id="icon-x-lg" viewBox="0 0 16 16">
    <path d="M2.146 2.854a.5.5 0 1 1 .708-.708L8 7.293l5.146-5.147a.5.5 0 0 1 .708.708L8.707 8l5.147 5.146a.5.5 0 0 1-.708.708L8 8.707l-5.146 5.147a.5.5 0 0 1-.708-.708L7.293 8z"/>
  </symbol>
</svg>
